name GIL11_static.mot
datacolumns 141
datarows 4
range 0.00833333 0.03333334
endheader

                time	           pelvis_tx	           pelvis_ty	           pelvis_tz	         pelvis_tilt	         pelvis_list	     pelvis_rotation	       hip_flexion_r	     hip_adduction_r	      hip_rotation_r	        knee_angle_r	       ankle_angle_r	    subtalar_angle_r	         mtp_angle_r	       hip_flexion_l	     hip_adduction_l	      hip_rotation_l	        knee_angle_l	       ankle_angle_l	    subtalar_angle_l	         mtp_angle_l	    lumbar_extension	      lumbar_bending	     lumbar_rotation	    ground_marker_px	    ground_marker_py	    ground_marker_pz	    ground_marker_px	    ground_marker_py	    ground_marker_pz	    ground_marker_px	    ground_marker_py	    ground_marker_pz	    ground_marker_px	    ground_marker_py	    ground_marker_pz	    ground_marker_px	    ground_marker_py	    ground_marker_pz	    ground_marker_px	    ground_marker_py	    ground_marker_pz	    ground_marker_px	    ground_marker_py	    ground_marker_pz	    ground_marker_px	    ground_marker_py	    ground_marker_pz	    ground_marker_px	    ground_marker_py	    ground_marker_pz	    ground_marker_px	    ground_marker_py	    ground_marker_pz	    ground_marker_px	    ground_marker_py	    ground_marker_pz	    ground_marker_px	    ground_marker_py	    ground_marker_pz	    ground_marker_px	    ground_marker_py	    ground_marker_pz	    ground_marker_px	    ground_marker_py	    ground_marker_pz	    ground_marker_px	    ground_marker_py	    ground_marker_pz	    ground_marker_px	    ground_marker_py	    ground_marker_pz	    ground_marker_px	    ground_marker_py	    ground_marker_pz	    ground_marker_px	    ground_marker_py	    ground_marker_pz	    ground_marker_px	    ground_marker_py	    ground_marker_pz	    ground_marker_px	    ground_marker_py	    ground_marker_pz	    ground_marker_px	    ground_marker_py	    ground_marker_pz	    ground_marker_px	    ground_marker_py	    ground_marker_pz	    ground_marker_px	    ground_marker_py	    ground_marker_pz	    ground_marker_px	    ground_marker_py	    ground_marker_pz	    ground_marker_px	    ground_marker_py	    ground_marker_pz	    ground_marker_px	    ground_marker_py	    ground_marker_pz	    ground_marker_px	    ground_marker_py	    ground_marker_pz	    ground_marker_px	    ground_marker_py	    ground_marker_pz	    ground_marker_px	    ground_marker_py	    ground_marker_pz	    ground_marker_px	    ground_marker_py	    ground_marker_pz	    ground_marker_px	    ground_marker_py	    ground_marker_pz	    ground_marker_px	    ground_marker_py	    ground_marker_pz	    ground_marker_px	    ground_marker_py	    ground_marker_pz	    ground_marker_px	    ground_marker_py	    ground_marker_pz	    ground_marker_px	    ground_marker_py	    ground_marker_pz	    ground_marker_px	    ground_marker_py	    ground_marker_pz	    ground_marker_px	    ground_marker_py	    ground_marker_pz	    ground_marker_px	    ground_marker_py	    ground_marker_pz	    ground_marker_px	    ground_marker_py	    ground_marker_pz	
          0.00833333	          1.52214789	          0.87992036	         -0.27162918	         -7.93305588	          0.91107345	          1.33795428	          8.30873489	         -6.75057411	          1.97817564	         -3.13527417	          1.77586985	          0.00000000	          0.00000000	          9.34019089	         -4.87436008	          5.78735399	         -6.27023697	          2.14978147	          0.00000000	          0.00000000	          5.25120687	         -3.41038537	          1.81135976	          1.43106151	          0.82001984	         -0.26915145	          1.42905211	          0.80997306	         -0.19563925	          1.42154229	          0.81362313	         -0.34753752	          1.43222404	          0.43631217	         -0.16011345	          1.43026662	          0.43754482	         -0.38846487	          1.41485095	          0.06482865	         -0.12629983	          1.39749646	          0.06753237	         -0.42319801	          1.52214789	          0.87992036	         -0.27162918	          1.52410173	          0.87721342	         -0.15349287	          1.52019417	          0.88262725	         -0.38976550	          1.32972980	          0.95123869	         -0.23391680	          1.32630372	          0.94904351	         -0.28800499	          1.43523300	          0.44200921	         -0.10046038	          1.43520641	          0.44412732	         -0.44789776	          1.43189931	          0.43539023	         -0.21533877	          1.43219721	          0.44064328	         -0.32433984	          1.39569688	          0.06910437	         -0.08916708	          1.38295436	          0.07248960	         -0.46228704	          1.43000388	          0.06780411	         -0.15633628	          1.40403652	          0.07540386	         -0.39463973	          1.37608910	          0.03371284	         -0.15761563	          1.34684801	          0.04730806	         -0.41198120	          1.52039576	          1.32068956	         -0.26739910	          1.56311262	          1.25299597	         -0.27099526	          1.39942789	          1.38065803	         -0.25849929	          1.52642322	          1.32594669	         -0.21546561	          1.52109194	          1.32221437	         -0.32098424	          1.50854588	          0.04068090	         -0.06746635	          1.50084257	          0.04400042	         -0.45748356	          1.59033215	          0.57441378	         -0.18619367	          1.46773136	          0.58155215	         -0.52065820	          1.52488089	          0.63116461	         -0.13577820	          1.40885258	          0.62719101	         -0.45611116	          1.51185524	          0.54448271	         -0.12742610	          1.41386425	          0.53933072	         -0.45147020	          1.38304079	          0.15171708	         -0.02949483	          1.49508703	          0.18691467	         -0.40652525	          1.39106178	          0.15726604	         -0.07220455	          1.45312572	          0.18859076	         -0.41288206	
          0.01666667	          1.52206016	          0.87987661	         -0.27162898	         -7.94669533	          0.90055805	          1.32275903	          8.34252930	         -6.73372221	          1.97050023	         -3.15461469	          1.77302682	          0.00000000	          0.00000000	          9.36026382	         -4.89452696	          5.79129267	         -6.27077055	          2.15029812	          0.00000000	          0.00000000	          5.37074375	         -3.63944197	          1.97242355	          1.43115616	          0.82003248	         -0.26914027	          1.42893314	          0.80997187	         -0.19563802	          1.42145240	          0.81358379	         -0.34753865	          1.43222594	          0.43630943	         -0.16012673	          1.43022239	          0.43753213	         -0.38849759	          1.41485000	          0.06484964	         -0.12631020	          1.39748764	          0.06754504	         -0.42317125	          1.52206016	          0.87987661	         -0.27162898	          1.52399099	          0.87720042	         -0.15349895	          1.52012920	          0.88255274	         -0.38975897	          1.32975280	          0.95120478	         -0.23392873	          1.32634890	          0.94901085	         -0.28803876	          1.43521309	          0.44200504	         -0.10047241	          1.43517673	          0.44412079	         -0.44792858	          1.43201065	          0.43493232	         -0.21488050	          1.43222880	          0.44066077	         -0.32433847	          1.39568269	          0.06912605	         -0.08918436	          1.38295329	          0.07249460	         -0.46226412	          1.42989647	          0.06767055	         -0.15639791	          1.40392494	          0.07548163	         -0.39458400	          1.37610209	          0.03372581	         -0.15759215	          1.34681344	          0.04733754	         -0.41195258	          1.52042019	          1.32089269	         -0.26755697	          1.56324959	          1.25326169	         -0.27099112	          1.39942789	          1.38065803	         -0.25849929	          1.52657473	          1.32637084	         -0.21575345	          1.52097261	          1.32220149	         -0.32105836	          1.50857139	          0.04068588	         -0.06744126	          1.50083148	          0.04404211	         -0.45750445	          1.59032130	          0.57437754	         -0.18622994	          1.46762431	          0.58158046	         -0.52069098	          1.52485502	          0.63111073	         -0.13618164	          1.40873504	          0.62721872	         -0.45609245	          1.51185524	          0.54448271	         -0.12742610	          1.41379070	          0.53932863	         -0.45145544	          1.38304460	          0.15163168	         -0.02946830	          1.49505389	          0.18687807	         -0.40648344	          1.39104342	          0.15732823	         -0.07243334	          1.45320332	          0.18857628	         -0.41290694	
          0.02500000	          1.52196932	          0.87984514	         -0.27162001	         -7.95850372	          0.90634257	          1.31072211	          8.37276649	         -6.73634911	          1.96571028	         -3.17080307	          1.78453577	          0.00000000	          0.00000000	          9.37643814	         -4.89550972	          5.78291798	         -6.26802301	          2.15066028	          0.00000000	          0.00000000	          5.42769003	         -3.70433092	          2.15627074	          1.43107045	          0.81991935	         -0.26916900	          1.42881036	          0.80995810	         -0.19565229	          1.42136550	          0.81357515	         -0.34755456	          1.43221354	          0.43630013	         -0.16013521	          1.43017220	          0.43753824	         -0.38852698	          1.41484392	          0.06487285	         -0.12632215	          1.39748764	          0.06756327	         -0.42315072	          1.52196932	          0.87984514	         -0.27162001	          1.52387202	          0.87716627	         -0.15350850	          1.52006674	          0.88252401	         -0.38973153	          1.32976818	          0.95116639	         -0.23393956	          1.32637870	          0.94899315	         -0.28806221	          1.43517935	          0.44199753	         -0.10048000	          1.43513143	          0.44412982	         -0.44795725	          1.43234360	          0.43453202	         -0.21469490	          1.43223488	          0.44067150	         -0.32435191	          1.39566350	          0.06914897	         -0.08920309	          1.38295555	          0.07250571	         -0.46224537	          1.43006051	          0.06744396	         -0.15633436	          1.40369165	          0.07570361	         -0.39449316	          1.37609339	          0.03371913	         -0.15757199	          1.34685576	          0.04732770	         -0.41196385	          1.52036905	          1.32101429	         -0.26763672	          1.56323314	          1.25340855	         -0.27113307	          1.39944744	          1.38065743	         -0.25847569	          1.52667189	          1.32654512	         -0.21590728	          1.52076328	          1.32227337	         -0.32109070	          1.50857377	          0.04071276	         -0.06742317	          1.50083864	          0.04404962	         -0.45751709	          1.59035325	          0.57441276	         -0.18617485	          1.46754682	          0.58159614	         -0.52071613	          1.52467239	          0.63091052	         -0.13613284	          1.40855801	          0.62727106	         -0.45607537	          1.51191604	          0.54444772	         -0.12732817	          1.41370988	          0.53930265	         -0.45145008	          1.38304114	          0.15157901	         -0.02942734	          1.49498379	          0.18691653	         -0.40643242	          1.39121556	          0.15724090	         -0.07260741	          1.45315135	          0.18870728	         -0.41299140	
          0.03333334	          1.52188742	          0.87984407	         -0.27161342	         -7.96437645	          0.93180436	          1.30394828	          8.39273453	         -6.76391363	          1.96189237	         -3.17973471	          1.80046904	          0.00000000	          0.00000000	          9.38304329	         -4.86982346	          5.76419163	         -6.26024818	          2.16775393	          0.00000000	          0.00000000	          5.41709328	         -3.63784552	          2.20802546	          1.43103158	          0.81985927	         -0.26924157	          1.42870104	          0.80993819	         -0.19569658	          1.42129660	          0.81361330	         -0.34759942	          1.43218851	          0.43628806	         -0.16014221	          1.43012142	          0.43756649	         -0.38854426	          1.41484511	          0.06489383	         -0.12633106	          1.39750445	          0.06757454	         -0.42313510	          1.52188742	          0.87984407	         -0.27161342	          1.52375841	          0.87712097	         -0.15352476	          1.52001643	          0.88256723	         -0.38970211	          1.32977724	          0.95112348	         -0.23394826	          1.32640553	          0.94899660	         -0.28805384	          1.43513250	          0.44199201	         -0.10048655	          1.43507755	          0.44415382	         -0.44797528	          1.43255556	          0.43453082	         -0.21498403	          1.43221986	          0.44069234	         -0.32434249	          1.39565098	          0.06916879	         -0.08921892	          1.38297009	          0.07251082	         -0.46222967	          1.43019855	          0.06740329	         -0.15628873	          1.40355587	          0.07563406	         -0.39450502	          1.37606215	          0.03369216	         -0.15753858	          1.34704924	          0.04722036	         -0.41202155	          1.52031219	          1.32101631	         -0.26756933	          1.56315064	          1.25340140	         -0.27119732	          1.39941788	          1.38067329	         -0.25844672	          1.52664959	          1.32646513	         -0.21580766	          1.52067327	          1.32235789	         -0.32104895	          1.50854206	          0.04073650	         -0.06741913	          1.50086379	          0.04401747	         -0.45751795	          1.59044218	          0.57452768	         -0.18601373	          1.46750772	          0.58158833	         -0.52072650	          1.52455652	          0.63060367	         -0.13569111	          1.40849841	          0.62729561	         -0.45607707	          1.51197684	          0.54441267	         -0.12723024	          1.41367114	          0.53929567	         -0.45144504	          1.38302100	          0.15157898	         -0.02938538	          1.49491251	          0.18696040	         -0.40640053	          1.39130890	          0.15710598	         -0.07257485	          1.45321429	          0.18838815	         -0.41313633	
